<svg xmlns="http://www.w3.org/2000/svg" width="460" height="460" viewBox="0 0 460 460">
<defs><filter id="sh" x="-20%" y="-20%" width="140%" height="150%"><feGaussianBlur in="SourceAlpha" stdDeviation="7"/><feOffset dy="9" result="b"/><feFlood flood-color="#000" flood-opacity="0.38"/><feComposite in2="b" operator="in" result="s"/><feGaussianBlur in="SourceAlpha" stdDeviation="1.3"/><feOffset dy="1.5" result="b2"/><feFlood flood-color="#000" flood-opacity="0.3"/><feComposite in2="b2" operator="in" result="s2"/><feMerge><feMergeNode in="s"/><feMergeNode in="s2"/><feMergeNode in="SourceGraphic"/></feMerge></filter><clipPath id="cc"><circle cx="230.0" cy="230.0" r="180"/></clipPath><linearGradient id="gl" x1="0" y1="0" x2="1" y2="1"><stop offset="0" stop-color="#fff" stop-opacity="0.30"/><stop offset="0.45" stop-color="#fff" stop-opacity="0.04"/><stop offset="0.46" stop-color="#fff" stop-opacity="0"/><stop offset="1" stop-color="#000" stop-opacity="0.12"/></linearGradient><linearGradient id="sky2" x1="0" y1="0" x2="0" y2="1"><stop offset="0" stop-color="#2B3A8C"/><stop offset="0.45" stop-color="#E35D6A"/><stop offset="0.72" stop-color="#FFB45C"/><stop offset="1" stop-color="#FFE9A8"/></linearGradient><linearGradient id="sea" x1="0" y1="0" x2="0" y2="1"><stop offset="0" stop-color="#1B2E6B"/><stop offset="1" stop-color="#00205B"/></linearGradient><radialGradient id="sun" cx="0.5" cy="0.5" r="0.5"><stop offset="0" stop-color="#FFF8D6"/><stop offset="0.7" stop-color="#FFE14D"/><stop offset="1" stop-color="#FFB23F"/></radialGradient><radialGradient id="halo" cx="0.5" cy="0.5" r="0.5"><stop offset="0" stop-color="#FFE9A0" stop-opacity="0.9"/><stop offset="1" stop-color="#FFE9A0" stop-opacity="0"/></radialGradient></defs><g filter="url(#sh)"><circle cx="230.0" cy="230.0" r="200" fill="#fff"/><g clip-path="url(#cc)"><g transform="translate(30.0,30.0)"><rect width="400" height="400" fill="url(#sky2)"/><circle cx="200" cy="262" r="150" fill="url(#halo)"/><path d="M200,262 L-59.7,275.0 L-59.7,249.0 Z" fill="#FFF3C4" fill-opacity="0.22"/><path d="M200,262 L-54.2,207.3 L-47.5,182.2 Z" fill="#FFF3C4" fill-opacity="0.22"/><path d="M200,262 L-31.4,143.4 L-18.4,120.9 Z" fill="#FFF3C4" fill-opacity="0.22"/><path d="M200,262 L7.2,87.6 L25.6,69.2 Z" fill="#FFF3C4" fill-opacity="0.22"/><path d="M200,262 L58.9,43.6 L81.4,30.6 Z" fill="#FFF3C4" fill-opacity="0.22"/><path d="M200,262 L120.2,14.5 L145.3,7.8 Z" fill="#FFF3C4" fill-opacity="0.22"/><path d="M200,262 L187.0,2.3 L213.0,2.3 Z" fill="#FFF3C4" fill-opacity="0.22"/><path d="M200,262 L254.7,7.8 L279.8,14.5 Z" fill="#FFF3C4" fill-opacity="0.22"/><path d="M200,262 L318.6,30.6 L341.1,43.6 Z" fill="#FFF3C4" fill-opacity="0.22"/><path d="M200,262 L374.4,69.2 L392.8,87.6 Z" fill="#FFF3C4" fill-opacity="0.22"/><path d="M200,262 L418.4,120.9 L431.4,143.4 Z" fill="#FFF3C4" fill-opacity="0.22"/><path d="M200,262 L447.5,182.2 L454.2,207.3 Z" fill="#FFF3C4" fill-opacity="0.22"/><path d="M200,262 L459.7,249.0 L459.7,275.0 Z" fill="#FFF3C4" fill-opacity="0.22"/><circle cx="200" cy="262" r="62" fill="url(#sun)"/><path d="M-10,275 L60,226 L96,250 L150,206 L196,262 L-10,262 Z" fill="#1A1440" fill-opacity="0.85"/><rect x="0" y="262" width="400" height="150" fill="url(#sea)"/><rect x="145.0" y="272" width="110" height="5.0" rx="2" fill="#FFD66B" fill-opacity="0.90"/><rect x="157.0" y="286" width="86" height="4.6" rx="2" fill="#FFD66B" fill-opacity="0.80"/><rect x="135.0" y="300" width="130" height="4.2" rx="2" fill="#FFD66B" fill-opacity="0.70"/><rect x="168.0" y="315" width="64" height="3.8" rx="2" fill="#FFD66B" fill-opacity="0.60"/><rect x="154.0" y="332" width="92" height="3.4" rx="2" fill="#FFD66B" fill-opacity="0.50"/><rect x="176.0" y="350" width="48" height="3.0" rx="2" fill="#FFD66B" fill-opacity="0.40"/><rect x="165.0" y="368" width="70" height="2.6" rx="2" fill="#FFD66B" fill-opacity="0.30"/><path d="M142,110 A72,72 0 0 1 258,110" fill="none" stroke="#fff" stroke-opacity="0.75" stroke-width="4" stroke-linecap="round" stroke-dasharray="1 12"/></g></g></g><circle cx="230.0" cy="230.0" r="200" fill="url(#gl)"/>
</svg>
